<svg width="1083" height="346" viewBox="0 0 1083 346" fill="none" xmlns="http://www.w3.org/2000/svg">
<g filter="url(#filter0_d_36_234)">
<path d="M968.609 266V122.656H908.708V82.8964H1073.5V122.656H1013.6V266H968.609Z" fill="#629080"/>
</g>
<g filter="url(#filter1_d_36_234)">
<path d="M846.985 268.616C833.034 268.616 820.042 266.262 808.01 261.553C796.152 256.67 785.776 249.957 776.882 241.412C767.989 232.867 761.013 222.927 755.956 211.592C751.073 200.083 748.632 187.701 748.632 174.448C748.632 161.021 751.073 148.639 755.956 137.304C761.013 125.795 767.989 115.768 776.882 107.223C785.95 98.6782 796.413 92.0516 808.271 87.3432C820.304 82.4604 833.208 80.019 846.985 80.019C857.099 80.019 867.039 81.5013 876.805 84.4658C886.57 87.4304 895.551 91.6156 903.747 97.0215C912.117 102.253 919.093 108.531 924.673 115.855L894.33 145.675C887.878 137.479 880.641 131.375 872.619 127.364C864.772 123.354 856.227 121.348 846.985 121.348C839.661 121.348 832.773 122.743 826.32 125.533C820.042 128.149 814.549 131.811 809.841 136.52C805.133 141.228 801.471 146.808 798.855 153.26C796.239 159.713 794.931 166.775 794.931 174.448C794.931 181.947 796.239 188.922 798.855 195.374C801.645 201.652 805.394 207.232 810.103 212.115C814.985 216.824 820.653 220.486 827.105 223.101C833.732 225.717 840.881 227.025 848.554 227.025C857.448 227.025 865.644 225.107 873.142 221.27C880.815 217.434 887.704 211.766 893.807 204.268L923.365 233.303C917.785 240.453 910.897 246.731 902.701 252.136C894.505 257.368 885.611 261.466 876.02 264.431C866.429 267.221 856.75 268.616 846.985 268.616Z" fill="#629080"/>
</g>
<g filter="url(#filter2_d_36_234)">
<path d="M591.169 266L666.241 82.8964H717.772L791.798 266H743.145L726.404 221.794H654.994L637.991 266H591.169ZM668.596 185.958H713.064L691.091 127.364L668.596 185.958Z" fill="#629080"/>
</g>
<g filter="url(#filter3_d_36_234)">
<path d="M547.609 266V122.656H487.708V82.8964H652.502V122.656H592.601V266H547.609Z" fill="#629080"/>
</g>
<g filter="url(#filter4_d_36_234)">
<path d="M327.171 266V82.8964H369.547L452.728 189.096V82.8964H495.104V266H455.344L369.547 155.615V266H327.171Z" fill="#629080"/>
</g>
<g filter="url(#filter5_d_36_234)">
<path d="M248.462 268.877C234.685 268.877 221.868 266.523 210.01 261.815C198.152 256.932 187.776 250.218 178.882 241.673C169.989 232.954 163.013 222.927 157.956 211.592C153.073 200.083 150.632 187.701 150.632 174.448C150.632 161.195 153.073 148.901 157.956 137.566C163.013 126.057 169.989 116.029 178.882 107.485C187.776 98.7654 198.152 92.0516 210.01 87.3432C221.868 82.4604 234.685 80.019 248.462 80.019C262.238 80.019 275.055 82.4604 286.913 87.3432C298.772 92.0516 309.147 98.7654 318.041 107.485C326.935 116.029 333.823 126.057 338.706 137.566C343.763 148.901 346.291 161.195 346.291 174.448C346.291 187.701 343.763 200.083 338.706 211.592C333.823 222.927 326.935 232.954 318.041 241.673C309.147 250.218 298.772 256.932 286.913 261.815C275.055 266.523 262.238 268.877 248.462 268.877ZM248.462 227.548C255.786 227.548 262.587 226.24 268.865 223.625C275.142 220.834 280.548 217.085 285.082 212.377C289.791 207.668 293.453 202.088 296.069 195.636C298.684 189.009 299.992 181.947 299.992 174.448C299.992 166.775 298.684 159.713 296.069 153.26C293.453 146.808 289.791 141.228 285.082 136.52C280.548 131.811 275.142 128.149 268.865 125.533C262.587 122.743 255.786 121.348 248.462 121.348C241.138 121.348 234.337 122.743 228.059 125.533C221.781 128.149 216.288 131.811 211.579 136.52C207.045 141.228 203.471 146.808 200.855 153.26C198.239 159.713 196.931 166.775 196.931 174.448C196.931 181.947 198.239 189.009 200.855 195.636C203.471 202.088 207.045 207.668 211.579 212.377C216.288 217.085 221.781 220.834 228.059 223.625C234.337 226.24 241.138 227.548 248.462 227.548Z" fill="#629080"/>
</g>
<g filter="url(#filter6_d_36_234)">
<path d="M106.985 268.616C93.0341 268.616 80.0424 266.262 68.0099 261.553C56.1518 256.67 45.7759 249.957 36.8823 241.412C27.9887 232.867 21.0133 222.927 15.9562 211.592C11.0734 200.083 8.63203 187.701 8.63203 174.448C8.63203 161.021 11.0734 148.639 15.9562 137.304C21.0133 125.795 27.9887 115.768 36.8823 107.223C45.9503 98.6782 56.4134 92.0516 68.2715 87.3432C80.304 82.4604 93.2085 80.019 106.985 80.019C117.099 80.019 127.039 81.5013 136.805 84.4658C146.57 87.4304 155.551 91.6156 163.747 97.0215C172.117 102.253 179.093 108.531 184.673 115.855L154.33 145.675C147.878 137.479 140.641 131.375 132.619 127.364C124.772 123.354 116.227 121.348 106.985 121.348C99.6607 121.348 92.7725 122.743 86.3203 125.533C80.0424 128.149 74.5493 131.811 69.841 136.52C65.1326 141.228 61.4705 146.808 58.8547 153.26C56.239 159.713 54.9311 166.775 54.9311 174.448C54.9311 181.947 56.239 188.922 58.8547 195.374C61.6449 201.652 65.3942 207.232 70.1025 212.115C74.9853 216.824 80.6528 220.486 87.105 223.101C93.7316 225.717 100.881 227.025 108.554 227.025C117.448 227.025 125.644 225.107 133.142 221.27C140.815 217.434 147.704 211.766 153.807 204.268L183.365 233.303C177.785 240.453 170.897 246.731 162.701 252.136C154.505 257.368 145.611 261.466 136.02 264.431C126.429 267.221 116.75 268.616 106.985 268.616Z" fill="#629080"/>
</g>
<defs>
<filter id="filter0_d_36_234" x="908.711" y="82.8965" width="173.894" height="192.209" filterUnits="userSpaceOnUse" color-interpolation-filters="sRGB">
<feFlood flood-opacity="0" result="BackgroundImageFix"/>
<feColorMatrix in="SourceAlpha" type="matrix" values="0 0 0 0 0 0 0 0 0 0 0 0 0 0 0 0 0 0 127 0" result="hardAlpha"/>
<feOffset dx="4.55263" dy="4.55263"/>
<feGaussianBlur stdDeviation="2.27632"/>
<feComposite in2="hardAlpha" operator="out"/>
<feColorMatrix type="matrix" values="0 0 0 0 0 0 0 0 0 0 0 0 0 0 0 0 0 0 0.25 0"/>
<feBlend mode="normal" in2="BackgroundImageFix" result="effect1_dropShadow_36_234"/>
<feBlend mode="normal" in="SourceGraphic" in2="effect1_dropShadow_36_234" result="shape"/>
</filter>
<filter id="filter1_d_36_234" x="748.633" y="80.0195" width="189.697" height="197.701" filterUnits="userSpaceOnUse" color-interpolation-filters="sRGB">
<feFlood flood-opacity="0" result="BackgroundImageFix"/>
<feColorMatrix in="SourceAlpha" type="matrix" values="0 0 0 0 0 0 0 0 0 0 0 0 0 0 0 0 0 0 127 0" result="hardAlpha"/>
<feOffset dx="9.10526" dy="4.55263"/>
<feGaussianBlur stdDeviation="2.27632"/>
<feComposite in2="hardAlpha" operator="out"/>
<feColorMatrix type="matrix" values="0 0 0 0 0 0 0 0 0 0 0 0 0 0 0 0 0 0 0.25 0"/>
<feBlend mode="normal" in2="BackgroundImageFix" result="effect1_dropShadow_36_234"/>
<feBlend mode="normal" in="SourceGraphic" in2="effect1_dropShadow_36_234" result="shape"/>
</filter>
<filter id="filter2_d_36_234" x="591.172" y="82.8965" width="213.145" height="192.209" filterUnits="userSpaceOnUse" color-interpolation-filters="sRGB">
<feFlood flood-opacity="0" result="BackgroundImageFix"/>
<feColorMatrix in="SourceAlpha" type="matrix" values="0 0 0 0 0 0 0 0 0 0 0 0 0 0 0 0 0 0 127 0" result="hardAlpha"/>
<feOffset dx="7.9671" dy="4.55263"/>
<feGaussianBlur stdDeviation="2.27632"/>
<feComposite in2="hardAlpha" operator="out"/>
<feColorMatrix type="matrix" values="0 0 0 0 0 0 0 0 0 0 0 0 0 0 0 0 0 0 0.25 0"/>
<feBlend mode="normal" in2="BackgroundImageFix" result="effect1_dropShadow_36_234"/>
<feBlend mode="normal" in="SourceGraphic" in2="effect1_dropShadow_36_234" result="shape"/>
</filter>
<filter id="filter3_d_36_234" x="487.711" y="82.8965" width="177.309" height="192.209" filterUnits="userSpaceOnUse" color-interpolation-filters="sRGB">
<feFlood flood-opacity="0" result="BackgroundImageFix"/>
<feColorMatrix in="SourceAlpha" type="matrix" values="0 0 0 0 0 0 0 0 0 0 0 0 0 0 0 0 0 0 127 0" result="hardAlpha"/>
<feOffset dx="7.9671" dy="4.55263"/>
<feGaussianBlur stdDeviation="2.27632"/>
<feComposite in2="hardAlpha" operator="out"/>
<feColorMatrix type="matrix" values="0 0 0 0 0 0 0 0 0 0 0 0 0 0 0 0 0 0 0.25 0"/>
<feBlend mode="normal" in2="BackgroundImageFix" result="effect1_dropShadow_36_234"/>
<feBlend mode="normal" in="SourceGraphic" in2="effect1_dropShadow_36_234" result="shape"/>
</filter>
<filter id="filter4_d_36_234" x="327.172" y="82.8965" width="178.173" height="192.209" filterUnits="userSpaceOnUse" color-interpolation-filters="sRGB">
<feFlood flood-opacity="0" result="BackgroundImageFix"/>
<feColorMatrix in="SourceAlpha" type="matrix" values="0 0 0 0 0 0 0 0 0 0 0 0 0 0 0 0 0 0 127 0" result="hardAlpha"/>
<feOffset dx="5.69079" dy="4.55263"/>
<feGaussianBlur stdDeviation="2.27632"/>
<feComposite in2="hardAlpha" operator="out"/>
<feColorMatrix type="matrix" values="0 0 0 0 0 0 0 0 0 0 0 0 0 0 0 0 0 0 0.25 0"/>
<feBlend mode="normal" in2="BackgroundImageFix" result="effect1_dropShadow_36_234"/>
<feBlend mode="normal" in="SourceGraphic" in2="effect1_dropShadow_36_234" result="shape"/>
</filter>
<filter id="filter5_d_36_234" x="150.633" y="80.0195" width="205.9" height="197.963" filterUnits="userSpaceOnUse" color-interpolation-filters="sRGB">
<feFlood flood-opacity="0" result="BackgroundImageFix"/>
<feColorMatrix in="SourceAlpha" type="matrix" values="0 0 0 0 0 0 0 0 0 0 0 0 0 0 0 0 0 0 127 0" result="hardAlpha"/>
<feOffset dx="5.69079" dy="4.55263"/>
<feGaussianBlur stdDeviation="2.27632"/>
<feComposite in2="hardAlpha" operator="out"/>
<feColorMatrix type="matrix" values="0 0 0 0 0 0 0 0 0 0 0 0 0 0 0 0 0 0 0.25 0"/>
<feBlend mode="normal" in2="BackgroundImageFix" result="effect1_dropShadow_36_234"/>
<feBlend mode="normal" in="SourceGraphic" in2="effect1_dropShadow_36_234" result="shape"/>
</filter>
<filter id="filter6_d_36_234" x="8.63281" y="80.0195" width="187.421" height="197.701" filterUnits="userSpaceOnUse" color-interpolation-filters="sRGB">
<feFlood flood-opacity="0" result="BackgroundImageFix"/>
<feColorMatrix in="SourceAlpha" type="matrix" values="0 0 0 0 0 0 0 0 0 0 0 0 0 0 0 0 0 0 127 0" result="hardAlpha"/>
<feOffset dx="6.82895" dy="4.55263"/>
<feGaussianBlur stdDeviation="2.27632"/>
<feComposite in2="hardAlpha" operator="out"/>
<feColorMatrix type="matrix" values="0 0 0 0 0 0 0 0 0 0 0 0 0 0 0 0 0 0 0.25 0"/>
<feBlend mode="normal" in2="BackgroundImageFix" result="effect1_dropShadow_36_234"/>
<feBlend mode="normal" in="SourceGraphic" in2="effect1_dropShadow_36_234" result="shape"/>
</filter>
</defs>
</svg>
