<svg width="339" height="345" viewBox="0 0 339 345" fill="none" xmlns="http://www.w3.org/2000/svg">
<g filter="url(#filter0_d_37_253)">
<path d="M248.476 268.61C233.686 268.61 219.07 265.913 204.628 260.519C190.186 255.125 177.31 247.643 166 238.073L191.056 205.448C202.192 214.496 212.458 221.021 221.854 225.023C231.25 228.851 241.255 230.765 251.869 230.765C258.829 230.765 264.745 230.069 269.617 228.677C274.489 227.285 278.23 225.284 280.84 222.674C283.45 219.89 284.755 216.671 284.755 213.017C284.755 207.971 282.841 204.056 279.013 201.272C275.185 198.488 268.66 196.313 259.438 194.747L219.244 187.7C204.454 185.09 193.057 179.435 185.053 170.735C177.049 162.035 173.047 150.986 173.047 137.588C173.047 125.756 176.005 115.577 181.921 107.051C188.011 98.525 196.624 92 207.76 87.476C219.07 82.952 232.468 80.69 247.954 80.69C261.526 80.69 275.185 83.039 288.931 87.737C302.677 92.261 314.596 98.612 324.688 106.79L300.937 139.937C282.145 125.495 263.44 118.274 244.822 118.274C238.732 118.274 233.425 118.97 228.901 120.362C224.551 121.58 221.158 123.407 218.722 125.843C216.46 128.105 215.329 130.889 215.329 134.195C215.329 138.719 216.982 142.199 220.288 144.635C223.768 147.071 229.336 148.985 236.992 150.377L274.837 156.641C292.411 159.425 305.722 165.254 314.77 174.128C323.992 183.002 328.603 194.486 328.603 208.58C328.603 220.934 325.384 231.635 318.946 240.683C312.508 249.557 303.286 256.43 291.28 261.302C279.274 266.174 265.006 268.61 248.476 268.61Z" fill="white"/>
</g>
<g filter="url(#filter1_d_37_253)">
<path d="M95.526 268.61C78.648 268.61 63.945 265.304 51.417 258.692C39.063 251.906 29.493 242.336 22.707 229.982C15.921 217.628 12.528 203.099 12.528 186.395V83.3H57.42V186.395C57.42 194.573 58.986 201.794 62.118 208.058C65.25 214.148 69.687 218.846 75.429 222.152C81.345 225.458 88.131 227.111 95.787 227.111C103.617 227.111 110.316 225.458 115.884 222.152C121.626 218.846 126.063 214.148 129.195 208.058C132.327 201.794 133.893 194.573 133.893 186.395V83.3H178.785V186.395C178.785 202.925 175.305 217.367 168.345 229.721C161.559 242.075 151.902 251.645 139.374 258.431C127.02 265.217 112.404 268.61 95.526 268.61Z" fill="white"/>
</g>
<defs>
<filter id="filter0_d_37_253" x="166" y="80.6895" width="172.602" height="195.92" filterUnits="userSpaceOnUse" color-interpolation-filters="sRGB">
<feFlood flood-opacity="0" result="BackgroundImageFix"/>
<feColorMatrix in="SourceAlpha" type="matrix" values="0 0 0 0 0 0 0 0 0 0 0 0 0 0 0 0 0 0 127 0" result="hardAlpha"/>
<feOffset dx="6" dy="4"/>
<feGaussianBlur stdDeviation="2"/>
<feComposite in2="hardAlpha" operator="out"/>
<feColorMatrix type="matrix" values="0 0 0 0 0 0 0 0 0 0 0 0 0 0 0 0 0 0 0.25 0"/>
<feBlend mode="normal" in2="BackgroundImageFix" result="effect1_dropShadow_37_253"/>
<feBlend mode="normal" in="SourceGraphic" in2="effect1_dropShadow_37_253" result="shape"/>
</filter>
<filter id="filter1_d_37_253" x="12.5312" y="83.3008" width="179.25" height="193.309" filterUnits="userSpaceOnUse" color-interpolation-filters="sRGB">
<feFlood flood-opacity="0" result="BackgroundImageFix"/>
<feColorMatrix in="SourceAlpha" type="matrix" values="0 0 0 0 0 0 0 0 0 0 0 0 0 0 0 0 0 0 127 0" result="hardAlpha"/>
<feOffset dx="9" dy="4"/>
<feGaussianBlur stdDeviation="2"/>
<feComposite in2="hardAlpha" operator="out"/>
<feColorMatrix type="matrix" values="0 0 0 0 0 0 0 0 0 0 0 0 0 0 0 0 0 0 0.25 0"/>
<feBlend mode="normal" in2="BackgroundImageFix" result="effect1_dropShadow_37_253"/>
<feBlend mode="normal" in="SourceGraphic" in2="effect1_dropShadow_37_253" result="shape"/>
</filter>
</defs>
</svg>
